<svg width="24" height="24" viewBox="0 0 24 24" fill="none" xmlns="http://www.w3.org/2000/svg">
<path d="M12.1572 1.78809V1.78906L12.8994 3.07715L13.3545 3.86914L14.042 3.26758L15.1611 2.29004L15.4082 2.07324L15.4727 2.39844L15.7578 3.8584L15.9326 4.75391L16.7773 4.40918L18.1523 3.84668L18.458 3.72168L18.4131 4.05176L18.2109 5.52637L18.0879 6.42871L18.9971 6.37695L20.4785 6.29102L20.8086 6.27148L20.6592 6.57129L19.9922 7.90039L19.584 8.71289L20.46 8.95898L21.8887 9.35938L22.21 9.44922L21.9707 9.68457L20.9102 10.7246L20.2617 11.3613L21.0098 11.8779L22.2324 12.7207L22.5068 12.9102L22.2061 13.0547L20.8662 13.6943L20.0459 14.0859L20.5859 14.8174L21.4697 16.0127L21.6689 16.2822L21.3389 16.3203L19.8643 16.4912L18.96 16.5957L19.2354 17.4629L19.6855 18.8809L19.7861 19.1982L19.4648 19.1279L18.0146 18.8105L17.124 18.6152L17.1045 19.5264L17.0713 21.0146L17.0635 21.3457L16.7832 21.1748L15.5146 20.4033L14.7344 19.9287L14.4209 20.7861L13.9092 22.1826L13.7949 22.4922L13.585 22.2393L12.6338 21.0967L12.0498 20.3945L11.4746 21.1045L10.5391 22.2598L10.3311 22.5156L10.2139 22.207L9.68359 20.8174L9.3584 19.9648L8.58398 20.4492L7.32617 21.2383L7.04688 21.4121L7.03613 21.0811L6.9834 19.5938L6.95117 18.6826L6.06348 18.8896L4.61816 19.2275L4.2959 19.3018L4.39355 18.9834L4.82422 17.5596L5.08789 16.6885L4.18164 16.5967L2.70508 16.4463L2.37402 16.4121L2.57031 16.1406L3.4375 14.9336L3.96875 14.1953L3.14258 13.8145L1.79395 13.1934L1.49023 13.0527L1.76367 12.8594L1.7627 12.8584L2.97461 12L3.71582 11.4736L3.05762 10.8457L1.98242 9.81934H1.9834L1.74121 9.58789L2.06055 9.49414L3.48438 9.07422L4.35742 8.81641L3.9375 8.00879L3.25293 6.68945L3.09863 6.3916L3.42969 6.40723L4.91211 6.47168L5.82227 6.51172L5.6875 5.61133L5.46582 4.13965L5.41602 3.80957L5.72266 3.93066L7.10449 4.47461L7.9541 4.80859L8.11719 3.91016L8.38281 2.44629L8.44141 2.11914L8.69238 2.33301L9.84082 3.31055L10.4941 3.86621L10.958 3.14453L11.8086 1.81934L11.8184 1.80469L11.8281 1.78906L11.9922 1.50195L12.1572 1.78809Z" stroke="#E84011" stroke-width="1.5"/>
</svg>
