<svg width="26" height="25" viewBox="0 0 26 25" fill="none" xmlns="http://www.w3.org/2000/svg">
<path d="M22.3149 14.9702L23.7262 14.3036L25.2753 13.5721L23.8619 12.608L22.5745 11.7295L23.6914 10.6454L24.9176 9.45566L23.2655 8.99743L21.7603 8.57993L22.4631 7.1956L23.2342 5.67602L21.5216 5.77332L19.9614 5.86234L20.1736 4.32688L20.4067 2.64168L18.818 3.28415L17.3705 3.86935L17.0699 2.34839L16.74 0.679052L15.447 1.797L14.2688 2.81558L13.4873 1.47335L12.63 0L11.7719 1.47335L10.9786 2.83628C10.9445 2.8418 10.9097 2.84732 10.8756 2.85353L9.66613 1.83565L8.35852 0.734949L8.05093 2.40842L7.77118 3.93353L6.31604 3.36765L4.71894 2.74657L4.97503 4.42833L5.20816 5.96102L3.64655 5.89339L1.93253 5.81886L2.72447 7.3281L3.44612 8.70276L1.94645 9.14028L0.300631 9.62059L1.54282 10.7937L2.67506 11.8627L1.39947 12.7584L0 13.7418L1.55883 14.4526L2.97917 15.0999L2.06545 16.3573L1.06195 17.7375L2.76901 17.9093L4.32436 18.0653L3.87063 19.5483L3.37236 21.1762L5.04323 20.7897L6.56517 20.4378L6.62015 21.9871L6.68069 23.6874L8.13514 22.7855L9.46014 21.9636L10.0183 23.4114L10.6313 25L11.7128 23.6792L12.6982 22.4756L13.6996 23.6661L14.7984 24.9724L15.39 23.3755L15.9286 21.9208L17.2647 22.7248L18.731 23.6074L18.7686 21.907L18.8027 20.3571L20.3295 20.6883L22.0052 21.052L21.4847 19.431L21.0108 17.9542L22.5633 17.7768L24.2676 17.5822L23.246 16.2158L22.3149 14.9709V14.9702Z" fill="#E84011"/>
</svg>
