<svg width="87" height="25" viewBox="0 0 87 25" fill="none" xmlns="http://www.w3.org/2000/svg">
<path d="M13.0557 1.72461L13.8369 3.06738L14.1396 3.58789L14.5957 3.19336L15.7744 2.1748L16.415 1.62012L16.5791 2.44531L16.8799 3.96582L16.9971 4.55957L17.5576 4.33301L19.0059 3.74805L19.793 3.42871L19.6787 4.25879L19.4658 5.79395L19.3828 6.39648L19.9902 6.36133L21.5498 6.27246L22.3955 6.22363L22.0176 6.96973L21.3145 8.35352L21.0381 8.89844L21.627 9.06152L23.1318 9.47949L23.9424 9.7041L23.3428 10.2861L22.2266 11.3711L21.7871 11.7969L22.293 12.1426L23.5801 13.0215L24.2715 13.4932L23.5127 13.8516L22.1016 14.5186L21.8145 14.6533V15.1367L21.9141 15.2705L22.8457 16.5156L23.3447 17.1836L22.5068 17.2803L20.9541 17.457L20.3486 17.5264L20.5352 18.1064L21.0088 19.584L21.2637 20.3789L20.4355 20.1992L18.9082 19.8682L18.3164 19.7402L18.3027 20.3457L18.2686 21.8955L18.25 22.7334L17.5225 22.2959L16.1865 21.4922L15.6689 21.1816L15.46 21.7471L14.9209 23.2021L14.627 23.9922L14.082 23.3438L13.0811 22.1533L12.6934 21.6924L12.3115 22.1592L11.3262 23.3623L10.7881 24.0186L10.4844 23.2314L9.92676 21.7842L9.70996 21.2207L9.19629 21.5391L7.87109 22.3604L7.14941 22.8076L7.12012 21.9697L7.06445 20.4199L7.04297 19.8145L6.45215 19.9502L4.93066 20.3027L4.10352 20.4932L4.34863 19.6943L4.80273 18.2119L4.98047 17.6289L4.37402 17.5674L2.81934 17.4121L1.97754 17.3271L2.46973 16.6514L3.38379 15.3936L3.74316 14.8984L3.18652 14.6445L1.7666 13.998L1.00098 13.6484L1.68652 13.168L2.96191 12.2715L3.46387 11.9199L3.01855 11.499L1.88574 10.4307L1.27734 9.85547L2.08691 9.62012L3.58594 9.18262L4.17285 9.01172L3.88867 8.4707L3.16699 7.0957L2.77832 6.35547L3.625 6.39258L5.18652 6.46094L5.79395 6.4873L5.70215 5.88574L5.46973 4.35352L5.34277 3.52539L6.13477 3.83398L7.58984 4.39941L8.1543 4.61914L8.2627 4.02344L8.54297 2.49902L8.69434 1.6709L9.34375 2.21777L10.5537 3.23633L10.7334 3.3877L10.9648 3.3457C10.9929 3.3406 11.022 3.336 11.0586 3.33008L11.292 3.29199L11.4111 3.08789L12.2041 1.72461L12.6299 0.993164L13.0557 1.72461Z" fill="#E84011" stroke="#E84011"/>
<path d="M38.4593 10.8238C38.2025 10.3552 37.8351 9.99771 37.3563 9.74997C36.8768 9.50223 36.3138 9.3787 35.6659 9.3787C34.5455 9.3787 33.6485 9.74376 32.9735 10.4725C32.2985 11.2019 31.9616 12.1756 31.9616 13.393C31.9616 14.691 32.3159 15.7048 33.0243 16.4342C33.7327 17.1636 34.7077 17.528 35.9492 17.528C36.7996 17.528 37.5177 17.3141 38.1051 16.8855C38.6924 16.457 39.1204 15.8414 39.3904 15.0388H34.9979V12.5097H42.5283V15.7013C42.2715 16.5577 41.8365 17.3541 41.2227 18.0904C40.6083 18.8268 39.8295 19.4223 38.8845 19.8771C37.9395 20.3325 36.8733 20.5596 35.6861 20.5596C34.2825 20.5596 33.0305 20.2553 31.931 19.6466C30.8308 19.0379 29.9741 18.1912 29.3603 17.1071C28.7459 16.0229 28.439 14.7856 28.439 13.3937C28.439 12.0017 28.7459 10.761 29.3603 9.66992C29.9741 8.57957 30.828 7.72938 31.9213 7.12071C33.0145 6.51205 34.2623 6.20703 35.6659 6.20703C37.366 6.20703 38.8003 6.61557 39.9673 7.43126C41.1344 8.24764 41.9075 9.37801 42.2854 10.8238H38.4593Z" fill="#E84011"/>
<path d="M47.9119 5.60449V20.4587H44.4504V5.60449H47.9119Z" fill="#E84011"/>
<path d="M50.6753 7.56219C50.2905 7.20748 50.0984 6.76927 50.0984 6.24756C50.0984 5.72585 50.2905 5.26763 50.6753 4.91292C51.0601 4.5589 51.5556 4.38086 52.1631 4.38086C52.7707 4.38086 53.246 4.55821 53.6308 4.91292C54.0156 5.26763 54.2077 5.71274 54.2077 6.24756C54.2077 6.78238 54.0156 7.20817 53.6308 7.56219C53.246 7.9169 52.7567 8.09425 52.1631 8.09425C51.5695 8.09425 51.0601 7.9169 50.6753 7.56219ZM53.8834 9.25844V20.4593H50.422V9.25844H53.8834Z" fill="#E84011"/>
<path d="M74.1566 10.4026C74.9868 11.2459 75.4016 12.417 75.4016 13.9152V20.4594H71.9603V14.3776C71.9603 13.655 71.7683 13.0961 71.3834 12.7013C70.9986 12.3066 70.469 12.1092 69.7947 12.1092C69.1203 12.1092 68.5901 12.3066 68.2059 12.7013C67.8211 13.0961 67.629 13.655 67.629 14.3776V20.4594H64.1878V14.3776C64.1878 13.655 63.9957 13.0961 63.6109 12.7013C63.226 12.3066 62.6964 12.1092 62.0221 12.1092C61.3478 12.1092 60.8175 12.3066 60.4334 12.7013C60.0485 13.0961 59.8565 13.655 59.8565 14.3776V20.4594H56.395V9.25846H59.8565V10.6635C60.2072 10.1949 60.6665 9.82365 61.233 9.54968C61.7994 9.27571 62.4404 9.13839 63.1557 9.13839C64.0061 9.13839 64.7647 9.31919 65.4327 9.68011C66.1008 10.0417 66.6234 10.5565 67.0013 11.2259C67.3924 10.6104 67.9255 10.1087 68.6005 9.72013C69.2755 9.3323 70.0104 9.1377 70.8072 9.1377C72.2109 9.1377 73.3271 9.55934 74.1573 10.4026H74.1566Z" fill="#E84011"/>
<path d="M79.7933 20.118C79.0244 19.784 78.4168 19.3251 77.9715 18.7434C77.5261 18.1616 77.2762 17.5088 77.2227 16.7863H80.6437C80.6841 17.1748 80.8664 17.4888 81.19 17.7296C81.5136 17.9705 81.9117 18.0912 82.3842 18.0912C82.8156 18.0912 83.1497 18.0077 83.3863 17.84C83.6222 17.673 83.7405 17.4557 83.7405 17.1879C83.7405 16.867 83.5714 16.6289 83.2346 16.475C82.8971 16.3211 82.3508 16.1507 81.595 15.963C80.7857 15.776 80.1107 15.5786 79.5706 15.3709C79.0306 15.1632 78.5651 14.8361 78.174 14.3875C77.7822 13.9396 77.5866 13.3337 77.5866 12.5712C77.5866 11.9287 77.7655 11.3435 78.1232 10.8149C78.4808 10.2863 79.007 9.86809 79.7022 9.56031C80.3974 9.25252 81.2234 9.09863 82.1817 9.09863C83.5985 9.09863 84.7155 9.44644 85.5318 10.1421C86.3481 10.8384 86.8171 11.7617 86.9389 12.9121H83.7405C83.6862 12.5243 83.5143 12.2165 83.2241 11.9887C82.934 11.7617 82.5526 11.6471 82.0808 11.6471C81.6758 11.6471 81.3654 11.7244 81.1496 11.8783C80.9339 12.0322 80.826 12.2434 80.826 12.5105C80.826 12.8313 80.9979 13.0722 81.3424 13.233C81.6862 13.3938 82.2227 13.5539 82.9513 13.7147C83.7878 13.9286 84.4698 14.1398 84.9959 14.3468C85.522 14.5545 85.9841 14.8885 86.3829 15.3502C86.7809 15.8119 86.9869 16.4309 87.0001 17.2072C87.0001 17.8628 86.8143 18.4487 86.4434 18.9635C86.0725 19.479 85.5394 19.8834 84.8442 20.1781C84.149 20.4721 83.3425 20.6197 82.4252 20.6197C81.4398 20.6197 80.563 20.4527 79.794 20.118H79.7933Z" fill="#E84011"/>
</svg>
